<svg width="31" height="40" viewBox="0 0 31 40" fill="none" xmlns="http://www.w3.org/2000/svg">
<path d="M29.5909 0.782959H5.63636C4.14151 0.782959 2.70788 1.41026 1.65085 2.52686C0.593829 3.64346 0 5.15789 0 6.737V37.9957C0 38.3905 0.148458 38.7691 0.412713 39.0483C0.676969 39.3274 1.03538 39.4842 1.40909 39.4842H26.7727C27.1464 39.4842 27.5049 39.3274 27.7691 39.0483C28.0334 38.7691 28.1818 38.3905 28.1818 37.9957C28.1818 37.6009 28.0334 37.2223 27.7691 36.9432C27.5049 36.664 27.1464 36.5072 26.7727 36.5072H2.81818C2.81818 35.7177 3.1151 34.9604 3.64361 34.4021C4.17212 33.8438 4.88894 33.5302 5.63636 33.5302H29.5909C29.9646 33.5302 30.323 33.3734 30.5873 33.0942C30.8515 32.8151 31 32.4365 31 32.0417V2.27147C31 1.87669 30.8515 1.49808 30.5873 1.21893C30.323 0.939784 29.9646 0.782959 29.5909 0.782959ZM14.0909 3.75998H22.5455V17.1566L19.1619 14.4773C18.918 14.284 18.6213 14.1796 18.3164 14.1796C18.0115 14.1796 17.7149 14.284 17.471 14.4773L14.0909 17.1566V3.75998ZM28.1818 30.5532H5.63636C4.64673 30.5517 3.67439 30.8272 2.81818 31.3514V6.737C2.81818 5.94745 3.1151 5.19023 3.64361 4.63193C4.17212 4.07363 4.88894 3.75998 5.63636 3.75998H11.2727V20.1336C11.2727 20.41 11.3456 20.681 11.4832 20.9162C11.6207 21.1513 11.8176 21.3413 12.0517 21.465C12.2857 21.5886 12.5477 21.6409 12.8084 21.6161C13.069 21.5913 13.3179 21.4903 13.5273 21.3244L18.3182 17.5287L23.1109 21.3244C23.3543 21.5173 23.6503 21.6217 23.9545 21.6221C24.3283 21.6221 24.6867 21.4653 24.9509 21.1861C25.2152 20.907 25.3636 20.5284 25.3636 20.1336V3.75998H28.1818V30.5532Z" fill="#0B5CF4"/>
</svg>
